<svg width="92" height="70" viewBox="0 0 92 70" fill="none" xmlns="http://www.w3.org/2000/svg">
<rect x="92" y="50.8136" width="80" height="42.2535" rx="21.1268" transform="rotate(-180 92 50.8136)" fill="white"/>
<g filter="url(#filter0_i)">
<rect x="87.4929" y="46.3066" width="70.9859" height="33.2394" rx="16.6197" transform="rotate(-180 87.4929 46.3066)" fill="#7D7987"/>
</g>
<g filter="url(#filter1_di)">
<circle cx="32.2814" cy="31.0953" r="19.7183" transform="rotate(-180 32.2814 31.0953)" fill="white"/>
</g>
<g filter="url(#filter2_i)">
<ellipse cx="32.2815" cy="31.377" rx="14.0845" ry="14.3662" transform="rotate(-180 32.2815 31.377)" fill="white"/>
</g>
<path d="M35.8663 28.0736C36.5752 28.7828 37.058 29.6863 37.2535 30.6698C37.449 31.6533 37.3485 32.6727 36.9647 33.5991C36.5809 34.5255 35.931 35.3173 35.0972 35.8744C34.2634 36.4315 33.2832 36.7288 32.2804 36.7288C31.2776 36.7288 30.2974 36.4315 29.4636 35.8744C28.6298 35.3173 27.9799 34.5255 27.5961 33.5991C27.2123 32.6727 27.1118 31.6533 27.3073 30.6698C27.5028 29.6863 27.9855 28.7828 28.6945 28.0736" stroke="#6D6D6D" stroke-width="3" stroke-linecap="round" stroke-linejoin="round"/>
<path d="M32.28 25.4637V31.0975" stroke="#6D6D6D" stroke-width="3" stroke-linecap="round" stroke-linejoin="round"/>
<defs>
<filter id="filter0_i" x="16.5071" y="13.0672" width="70.9859" height="37.2394" filterUnits="userSpaceOnUse" color-interpolation-filters="sRGB">
<feFlood flood-opacity="0" result="BackgroundImageFix"/>
<feBlend mode="normal" in="SourceGraphic" in2="BackgroundImageFix" result="shape"/>
<feColorMatrix in="SourceAlpha" type="matrix" values="0 0 0 0 0 0 0 0 0 0 0 0 0 0 0 0 0 0 127 0" result="hardAlpha"/>
<feOffset dy="4"/>
<feGaussianBlur stdDeviation="2"/>
<feComposite in2="hardAlpha" operator="arithmetic" k2="-1" k3="1"/>
<feColorMatrix type="matrix" values="0 0 0 0 0 0 0 0 0 0 0 0 0 0 0 0 0 0 0.25 0"/>
<feBlend mode="normal" in2="shape" result="effect1_innerShadow"/>
</filter>
<filter id="filter1_di" x="0.563232" y="0.377018" width="69.4366" height="69.4366" filterUnits="userSpaceOnUse" color-interpolation-filters="sRGB">
<feFlood flood-opacity="0" result="BackgroundImageFix"/>
<feColorMatrix in="SourceAlpha" type="matrix" values="0 0 0 0 0 0 0 0 0 0 0 0 0 0 0 0 0 0 127 0"/>
<feOffset dx="3" dy="4"/>
<feGaussianBlur stdDeviation="7.5"/>
<feColorMatrix type="matrix" values="0 0 0 0 0.580392 0 0 0 0 0.580392 0 0 0 0 0.580392 0 0 0 0.4 0"/>
<feBlend mode="normal" in2="BackgroundImageFix" result="effect1_dropShadow"/>
<feBlend mode="normal" in="SourceGraphic" in2="effect1_dropShadow" result="shape"/>
<feColorMatrix in="SourceAlpha" type="matrix" values="0 0 0 0 0 0 0 0 0 0 0 0 0 0 0 0 0 0 127 0" result="hardAlpha"/>
<feOffset dy="-6"/>
<feGaussianBlur stdDeviation="7.5"/>
<feComposite in2="hardAlpha" operator="arithmetic" k2="-1" k3="1"/>
<feColorMatrix type="matrix" values="0 0 0 0 0.580854 0 0 0 0 0.580854 0 0 0 0 0.580854 0 0 0 0.4 0"/>
<feBlend mode="normal" in2="shape" result="effect2_innerShadow"/>
</filter>
<filter id="filter2_i" x="18.197" y="17.0108" width="31.169" height="31.7324" filterUnits="userSpaceOnUse" color-interpolation-filters="sRGB">
<feFlood flood-opacity="0" result="BackgroundImageFix"/>
<feBlend mode="normal" in="SourceGraphic" in2="BackgroundImageFix" result="shape"/>
<feColorMatrix in="SourceAlpha" type="matrix" values="0 0 0 0 0 0 0 0 0 0 0 0 0 0 0 0 0 0 127 0" result="hardAlpha"/>
<feOffset dx="3" dy="3"/>
<feGaussianBlur stdDeviation="4.5"/>
<feComposite in2="hardAlpha" operator="arithmetic" k2="-1" k3="1"/>
<feColorMatrix type="matrix" values="0 0 0 0 0.34027 0 0 0 0 0.34027 0 0 0 0 0.34027 0 0 0 0.25 0"/>
<feBlend mode="normal" in2="shape" result="effect1_innerShadow"/>
</filter>
</defs>
</svg>
